<?xml version="1.0" standalone="no"?>
<!DOCTYPE svg PUBLIC "-//W3C//DTD SVG 20010904//EN"
 "http://www.w3.org/TR/2001/REC-SVG-20010904/DTD/svg10.dtd">
<svg version="1.0" xmlns="http://www.w3.org/2000/svg"
 width="733.000000pt" height="733.000000pt" viewBox="0 0 733.000000 733.000000"
 preserveAspectRatio="xMidYMid meet">
<metadata>
Created by potrace 1.11, written by Peter Selinger 2001-2013
</metadata>
<g transform="translate(0.000000,733.000000) scale(0.100000,-0.100000)"
fill="#000000" stroke="none">
<path d="M1120 6195 c-180 -38 -350 -144 -490 -302 -36 -41 -70 -79 -76 -86
-27 -31 -127 -181 -177 -267 -129 -222 -216 -440 -262 -664 -21 -97 -27 -350
-12 -456 30 -208 112 -403 238 -562 201 -255 272 -430 272 -668 0 -219 -57
-379 -266 -742 -208 -363 -255 -510 -221 -689 43 -226 228 -412 636 -640 168
-94 626 -324 783 -393 61 -27 133 -59 160 -71 344 -156 1036 -383 1315 -431
14 -3 57 -11 95 -19 148 -30 341 -57 507 -72 105 -10 537 -10 643 0 203 18
457 71 659 137 188 61 440 178 564 261 24 16 45 29 47 29 3 0 44 28 92 62 414
294 760 712 1021 1233 56 113 151 318 156 340 2 6 8 22 14 38 43 101 105 278
152 432 35 115 121 448 133 515 17 91 28 148 32 170 9 43 44 263 50 315 4 28
8 62 11 76 2 14 6 52 9 85 4 32 8 73 10 90 20 160 27 625 13 799 -11 131 -41
235 -67 235 -5 0 -28 -24 -52 -52 -47 -57 -352 -365 -407 -411 -512 -433
-1029 -597 -1598 -507 -135 21 -335 80 -505 148 -136 55 -514 256 -566 301 -7
6 -14 11 -17 11 -7 0 -205 134 -281 189 -182 134 -392 297 -520 402 -167 139
-606 494 -690 559 -61 46 -112 87 -115 90 -13 17 -317 224 -405 277 -192 115
-377 196 -527 229 -90 20 -284 25 -358 9z"/>
</g>
</svg>
