<?xml version="1.0" encoding="utf-8"?>
<!-- Generator: Adobe Illustrator 22.0.1, SVG Export Plug-In . SVG Version: 6.00 Build 0)  -->
<svg version="1.1" id="Capa_1" xmlns="http://www.w3.org/2000/svg" xmlns:xlink="http://www.w3.org/1999/xlink" x="0px" y="0px"
	 viewBox="0 0 75.5 50.3" style="enable-background:new 0 0 75.5 50.3;" xml:space="preserve">
<style type="text/css">
	.st0{fill:#FFFFFF;stroke:#FFFFFF;stroke-miterlimit:10;}
</style>
<g>
	<g>
		<path class="st0" d="M38.4,47.4l12.2-12.2c0.5-0.5,0.5-1.2,0-1.7c-0.5-0.5-1.2-0.5-1.7,0L38.8,43.8V23.2c0-0.6-0.5-1.2-1.2-1.2
			c-0.6,0-1.2,0.5-1.2,1.2v20.6L26.2,33.6c-0.5-0.5-1.2-0.5-1.7,0c-0.5,0.5-0.5,1.2,0,1.7l12.2,12.2c0,0,0,0,0,0l0.8,0.8L38.4,47.4
			C38.4,47.4,38.4,47.4,38.4,47.4z"/>
		<path class="st0" d="M60.5,14.9C57.7,6.8,50.1,1.4,41.4,1.4c-8.1,0-15.5,4.9-18.6,12.3c-1.5-0.7-3.1-1-4.8-1
			c-6.3,0-11.4,5.1-11.4,11.4c-3.3,2.5-5.2,6.4-5.2,10.5c0,7.3,5.9,13.2,13.4,13.2c0.1,0,0.2,0,0.2,0s0.1,0,0.2,0h12.3
			c0.6,0,1.2-0.5,1.2-1.2c0-0.6-0.5-1.2-1.2-1.2H15.2c-0.1,0-0.2,0-0.3,0l-0.2,0c-6,0-10.9-4.9-10.9-10.9c0-3.6,1.8-6.9,4.7-9
			L9,25.1l0-0.7c0-0.1,0-0.2,0-0.3c0-5,4.1-9.1,9.1-9.1c1.7,0,3.3,0.5,4.8,1.4l1.2,0.8l0.5-1.4c2.5-7.2,9.3-12,16.9-12
			c7.9,0,14.7,5,17.1,12.5l0.2,0.7l0.7,0.1c7,1.1,12,7.1,12,14.1c0,7.9-6.4,14.3-14.3,14.3h-9.5c-0.6,0-1.2,0.5-1.2,1.2
			c0,0.6,0.5,1.2,1.2,1.2h9.5c9.2,0,16.6-7.5,16.6-16.6C73.8,23.2,68.3,16.4,60.5,14.9z"/>
	</g>
</g>
</svg>
