<?xml version="1.0" encoding="UTF-8"?>
<svg width="653px" height="603px" viewBox="0 0 653 603" version="1.1" xmlns="http://www.w3.org/2000/svg" xmlns:xlink="http://www.w3.org/1999/xlink">
    <!-- Generator: Sketch 51.3 (57544) - http://www.bohemiancoding.com/sketch -->
    <title>Group 3</title>
    <desc>Created with Sketch.</desc>
    <defs>
        <path d="M376.906661,0 C373.923848,0.00811041373 370.88154,0.178969796 367.784065,0.523392032 C308.275446,7.14203033 368.409293,69.977731 276.920477,92.4414143 C264.537068,95.4822787 254.161312,90.1483299 241.866603,84.8143812 C223.552181,76.8688792 200.981234,68.9228365 161.177573,88.6570952 C136.348557,100.96654 101.930728,168.200789 87.6213356,191.929697 C75.3774671,212.233306 -0.53797894,240.592179 0.0028757505,298.987158 C0.929359835,398.999373 87.5126238,384.964572 95.7346968,417.939352 C102.307163,444.303063 85.1674778,459.647965 96.2755515,484.445285 C118.028727,533.00828 285.67421,545.682693 326.679109,579.606932 C436.473152,670.444106 441.584769,469.510769 519.764774,439.567662 C600.245034,408.743224 652.922658,333.266632 653,276.235825 L653,275.961693 C652.997296,274.061694 652.935638,272.186566 652.814487,270.330363 C648.824602,209.109716 547.411102,147.546269 507.324575,101.093063 C469.272743,56.9972842 433.003028,0.140580505 377.345835,0 L376.906661,0 Z" id="path-1"></path>
        <linearGradient x1="2.62598848e-05%" y1="49.9999878%" x2="100.000042%" y2="49.9999878%" id="linearGradient-3">
            <stop stop-color="#FF8181" offset="0%"></stop>
            <stop stop-color="#97BBFB" offset="100%"></stop>
        </linearGradient>
    </defs>
    <g id="Page-1" stroke="none" stroke-width="1" fill="none" fill-rule="evenodd">
        <g id="Homepage" transform="translate(-20.000000, -810.000000)">
            <g id="Group-2" transform="translate(20.000000, 810.000000)">
                <g id="Group-3">
                    <mask id="mask-2" fill="white">
                        <use xlink:href="#path-1"></use>
                    </mask>
                    <g id="Clip-2"></g>
                    <path d="M376.906661,0 C373.923848,0.00811041373 370.88154,0.178969796 367.784065,0.523392032 C308.275446,7.14203033 368.409293,69.977731 276.920477,92.4414143 C264.537068,95.4822787 254.161312,90.1483299 241.866603,84.8143812 C223.552181,76.8688792 200.981234,68.9228365 161.177573,88.6570952 C136.348557,100.96654 101.930728,168.200789 87.6213356,191.929697 C75.3774671,212.233306 -0.53797894,240.592179 0.0028757505,298.987158 C0.929359835,398.999373 87.5126238,384.964572 95.7346968,417.939352 C102.307163,444.303063 85.1674778,459.647965 96.2755515,484.445285 C118.028727,533.00828 285.67421,545.682693 326.679109,579.606932 C436.473152,670.444106 441.584769,469.510769 519.764774,439.567662 C600.245034,408.743224 652.922658,333.266632 653,276.235825 L653,275.961693 C652.997296,274.061694 652.935638,272.186566 652.814487,270.330363 C648.824602,209.109716 547.411102,147.546269 507.324575,101.093063 C469.272743,56.9972842 433.003028,0.140580505 377.345835,0 L376.906661,0 Z" id="Fill-1" fill="url(#linearGradient-3)" mask="url(#mask-2)"></path>
                </g>
            </g>
        </g>
    </g>
</svg>